<?xml version="1.0" standalone="no"?>
<!DOCTYPE svg PUBLIC "-//W3C//DTD SVG 1.1//EN" "http://www.w3.org/Graphics/SVG/1.1/DTD/svg11.dtd" >
<svg xmlns="http://www.w3.org/2000/svg">
<metadata></metadata>
<defs>
<font id="biryaniextrabold" horiz-adv-x="1126" >
<font-face units-per-em="2048" ascent="1638" descent="-410" />
<missing-glyph horiz-adv-x="450" />
<glyph unicode="&#xfb01;" horiz-adv-x="1419" d="M66 0zM66 870v283h139v307q0 299 342 299q80 0 198 -24v-273q-53 16 -116 17q-62 0 -85.5 -28t-23.5 -99v-199h225v-283h-225v-870h-315v870h-139zM951 0v1153h315v-1153h-315zM951 1343v310h315v-310h-315z" />
<glyph unicode="&#xfb02;" horiz-adv-x="1542" d="M66 0zM66 870v283h139v307q0 299 342 299q80 0 198 -24v-273q-53 16 -116 17q-62 0 -85.5 -28t-23.5 -99v-199h225v-283h-225v-870h-315v870h-139zM951 272v1461h315v-1350q0 -74 23.5 -101.5t85.5 -27.5q63 0 116 16v-272q-119 -25 -198 -25q-342 0 -342 299z" />
<glyph horiz-adv-x="0" />
<glyph unicode="&#xd;" horiz-adv-x="1228" />
<glyph unicode=" "  horiz-adv-x="450" />
<glyph unicode="&#x09;" horiz-adv-x="450" />
<glyph unicode="&#xa0;" horiz-adv-x="450" />
<glyph unicode="!" horiz-adv-x="581" d="M115 1552h352l-41 -1081h-270zM123 0v344h336v-344h-336z" />
<glyph unicode="&#x22;" horiz-adv-x="1011" d="M147 934v618h287v-618h-287zM147 934zM577 934v618h287v-618h-287z" />
<glyph unicode="#" horiz-adv-x="1439" d="M123 289v282h182l31 238h-152v283h189l37 288h286l-39 -288h226l37 288h286l-39 -288h148v-283h-182l-31 -238h151v-282h-188l-37 -289h-287l39 289h-225l-37 -289h-287l39 289h-147zM592 571h223l31 238h-223z" />
<glyph unicode="$" horiz-adv-x="1142" d="M49 979q0 186 104.5 293.5t297.5 130.5v149h268v-155q150 -23 280 -92v-285q-125 72 -280 96v-315l22 -6q176 -49 258 -143.5t82 -254.5q0 -176 -106.5 -285.5t-298.5 -138.5v-170h-268v168q-190 18 -353 99v292q166 -88 353 -110v309q-174 49 -266.5 144.5t-92.5 273.5z M358 1006q0 -52 21.5 -79.5t71.5 -45.5v245q-92 -23 -93 -120zM676 256q55 14 75.5 43t20.5 72q0 41 -22.5 65.5t-73.5 42.5v-223z" />
<glyph unicode="%" horiz-adv-x="2111" d="M45 1085q0 123 53.5 224.5t154.5 160t236 58.5t235.5 -58.5t153 -159t52.5 -225.5t-52.5 -225t-152.5 -159.5t-236 -59.5q-135 0 -236 59.5t-154.5 161t-53.5 223.5zM281 1085q0 -98 56 -164.5t152 -66.5q99 0 153 66.5t54 164.5q0 100 -54 165t-153 65q-96 0 -152 -65.5 t-56 -164.5zM504 -68l854 1651h254l-854 -1651h-254zM1182 410q0 123 53 223t154.5 158.5t236.5 58.5t235.5 -58.5t152.5 -157.5t52 -224t-52 -225.5t-152.5 -160t-235.5 -59.5t-236.5 59.5t-154.5 161t-53 224.5zM1417 410q0 -98 56.5 -165t152.5 -67q98 0 152.5 66.5 t54.5 165.5q0 100 -54.5 164.5t-152.5 64.5q-96 0 -152.5 -65.5t-56.5 -163.5z" />
<glyph unicode="&#x26;" horiz-adv-x="1667" d="M70 399q0 150 73.5 253.5t204.5 187.5q-135 178 -135 358q0 123 57.5 213t156.5 137t226 47q197 0 319 -103t122 -288q0 -123 -84 -229.5t-219 -190.5q139 -158 274 -278q61 100 95 231t36 283h324q0 -186 -58.5 -363.5t-165.5 -320.5q94 -55 187 -55h123v-281h-125 q-109 0 -207 27.5t-199 87.5q-209 -150 -448 -150q-270 0 -413.5 112.5t-143.5 321.5zM393 410q0 -76 57.5 -122t176.5 -46q113 0 215 51q-131 121 -312 328q-82 -55 -109.5 -101.5t-27.5 -109.5zM537 1196q0 -53 18 -99t59 -102l17 9q68 39 103.5 96t35.5 110 q0 125 -117 125q-116 0 -116 -139z" />
<glyph unicode="'" horiz-adv-x="581" d="M147 934v618h287v-618h-287z" />
<glyph unicode="(" horiz-adv-x="770" d="M115 735q0 315 95 554t277 446l228 -158q-260 -352 -260 -842q0 -489 260 -841l-228 -158q-182 207 -277 445.5t-95 553.5z" />
<glyph unicode=")" horiz-adv-x="770" d="M55 -106q260 352 260 841t-260 842l228 158q182 -207 277 -445.5t95 -554.5q0 -315 -95 -553.5t-277 -445.5z" />
<glyph unicode="*" horiz-adv-x="1265" d="M129 1135l324 143l-324 143l127 221l287 -206l-37 350h254l-37 -350l287 206l127 -221l-322 -143l322 -143l-127 -222l-287 207l37 -350h-254l37 350l-287 -207z" />
<glyph unicode="+" d="M137 549v282h283v283h287v-283h282v-282h-282v-287h-287v287h-283z" />
<glyph unicode="," horiz-adv-x="581" d="M55 -309l123 669h328l-170 -669h-281z" />
<glyph unicode="-" horiz-adv-x="929" d="M164 467v278h602v-278h-602z" />
<glyph unicode="." horiz-adv-x="581" d="M123 0v360h336v-360h-336z" />
<glyph unicode="/" horiz-adv-x="880" d="M-37 -362l637 2269h320l-637 -2269h-320z" />
<glyph unicode="0" d="M70 688q0 375 119.5 548t373.5 173q246 0 370 -175t124 -546q0 -377 -123 -550t-371 -173q-254 0 -373.5 171t-119.5 552zM393 688q0 -174 18.5 -271.5t55.5 -136t96 -38.5q86 0 128 100t42 363q0 236 -43 332t-127 96q-59 0 -96 -40t-55.5 -137.5t-18.5 -267.5z" />
<glyph unicode="1" d="M145 0v281h275v819h-234v280h553v-1099h277v-281h-871z" />
<glyph unicode="2" d="M92 0v281q254 219 368.5 324.5t173 187t58.5 157.5q0 90 -55 136.5t-152 46.5q-170 0 -342 -84v284q100 43 198.5 59.5t209.5 16.5q207 0 336 -110.5t129 -317.5q0 -123 -54.5 -228.5t-160 -210t-295.5 -261.5h555v-281h-969z" />
<glyph unicode="3" d="M111 37v285q76 -37 165 -58.5t175 -21.5q125 0 193.5 47t68.5 137q0 78 -57.5 118t-166.5 40h-215v276h215q203 0 203 135q0 66 -57 102t-164 36q-197 0 -340 -72v285q152 63 387 63q229 0 363.5 -96t134.5 -260q0 -133 -61.5 -210t-178.5 -120q125 -33 192.5 -119 t67.5 -225q0 -190 -139 -302t-379 -112q-242 0 -407 72z" />
<glyph unicode="4" d="M27 276v265l493 858h422v-858h166v-265h-166v-311h-319v311h-596zM358 541h265v467z" />
<glyph unicode="5" d="M117 25v282q78 -31 171 -48t171 -17q264 0 264 198q0 86 -60.5 132t-170.5 46q-96 0 -189.5 -16t-163.5 -45l15 823h813v-280h-500l-6 -207q33 2 98 2q232 0 360 -124t128 -331q0 -229 -143.5 -352t-411.5 -123q-203 0 -375 60z" />
<glyph unicode="6" d="M51 512q0 547 662 893l209 -197q-193 -121 -297.5 -202.5t-161.5 -167.5q88 35 178 34q131 0 229.5 -55t150.5 -151.5t52 -219.5q0 -145 -63.5 -254.5t-176 -168t-253.5 -58.5q-260 0 -394.5 141.5t-134.5 405.5zM375 481q2 -127 52 -191.5t144 -64.5q80 0 129.5 52.5 t49.5 150.5q0 92 -48.5 147.5t-132.5 55.5q-98 0 -190 -51q-4 -61 -4 -99z" />
<glyph unicode="7" d="M102 1100v280h932v-280l-499 -1135h-359l526 1135h-600z" />
<glyph unicode="8" d="M55 362q0 125 63.5 217.5t184.5 139.5q-100 45 -151.5 128t-51.5 191q0 166 121 268.5t342 102.5q141 0 245.5 -48t161 -132t56.5 -191q0 -106 -55.5 -190t-155.5 -129q123 -47 189.5 -139.5t66.5 -217.5q0 -182 -136 -289.5t-372 -107.5q-244 0 -376 106.5t-132 290.5z M379 406q0 -82 53 -131.5t131 -49.5t131.5 49.5t53.5 131.5t-52.5 131t-132.5 49t-132 -49.5t-52 -130.5zM424 995q0 -68 38 -110.5t101 -42.5t101 43t38 110q0 68 -37.5 111t-101.5 43q-63 0 -101 -43t-38 -111z" />
<glyph unicode="9" d="M53 926q0 145 63.5 253.5t176.5 167t254 58.5q260 0 394 -141.5t134 -405.5q0 -547 -661 -893l-209 197q193 121 297 204t162 169q-86 -37 -179 -37q-131 0 -229 55t-150.5 152.5t-52.5 220.5zM377 942q0 -92 48 -146.5t132 -54.5q103 1 191 52q4 61 4 96 q-2 127 -52.5 191.5t-144.5 64.5q-80 0 -129 -52.5t-49 -150.5z" />
<glyph unicode=":" horiz-adv-x="581" d="M123 0v360h336v-360h-336zM123 0zM123 809v360h336v-360h-336z" />
<glyph unicode=";" horiz-adv-x="581" d="M55 0zM55 -309l123 669h328l-170 -669h-281zM123 809v360h336v-360h-336z" />
<glyph unicode="&#x3c;" d="M137 555v256l731 432l133 -250l-526 -311l526 -307l-133 -250z" />
<glyph unicode="=" d="M137 344v283h852v-283h-852zM137 754v282h852v-282h-852z" />
<glyph unicode="&#x3e;" d="M125 125zM125 375l133 -250l731 430v256l-731 432l-133 -250l526 -311z" />
<glyph unicode="?" horiz-adv-x="1040" d="M92 1221v284q96 43 190.5 59.5t200.5 16.5q213 0 347.5 -103.5t134.5 -293.5q0 -92 -29 -161t-72 -115t-110 -101l-62 -49q-57 -49 -77.5 -87t-20.5 -104v-96h-320v125q0 113 37 179.5t131 139.5l95 78q63 51 83.5 83t20.5 83q0 70 -52 108t-140 38q-184 0 -357 -84z M266 0v344h336v-344h-336z" />
<glyph unicode="@" horiz-adv-x="2019" d="M102 467q0 293 131.5 524.5t353.5 359.5t482 128q258 0 449.5 -96.5t295 -274.5t103.5 -418q0 -193 -70.5 -343t-196.5 -234t-288 -84q-100 0 -163.5 37.5t-86.5 109.5q-61 -59 -132 -90t-144 -31q-141 0 -229.5 92.5t-88.5 260.5q0 180 69.5 323t189.5 224t267 81 q156 0 238 -98l21 66h251l-198 -676q-8 -25 -8 -49q0 -57 61 -58q84 0 146.5 65.5t94 173t31.5 230.5q0 287 -161.5 441.5t-450.5 154.5q-195 0 -362.5 -104.5t-268 -290.5t-100.5 -424q0 -326 167 -517.5t490 -191.5q131 0 250 38t252 112l76 -189q-152 -76 -285 -114.5 t-293 -38.5q-262 0 -464.5 105.5t-315.5 309t-113 486.5zM768 428q0 -84 30.5 -121t90.5 -37q133 0 244 158l92 315q-66 80 -158 80q-86 0 -153.5 -54t-105.5 -145.5t-40 -195.5z" />
<glyph unicode="A" horiz-adv-x="1632" d="M59 0l553 1571h406l555 -1571h-328l-123 350h-612l-123 -350h-328zM606 631h418l-209 598z" />
<glyph unicode="B" horiz-adv-x="1509" d="M178 0v1552h621q293 0 414.5 -105.5t121.5 -309.5q0 -127 -51 -213t-166 -136q131 -43 205 -134t74 -224q0 -217 -137.5 -323.5t-460.5 -106.5h-621zM504 260h295q147 0 207.5 47t60.5 148q0 100 -67.5 147t-200.5 47h-295v-389zM504 909h295q205 0 207 191 q0 102 -47.5 147t-159.5 45h-295v-383z" />
<glyph unicode="C" horiz-adv-x="1456" d="M82 772q0 229 91 412.5t271.5 290t440.5 106.5q109 0 193.5 -17.5t183.5 -58.5v-284q-174 84 -367 84q-143 0 -251.5 -69t-169 -189.5t-60.5 -272.5q0 -242 125 -387t346 -145q100 0 197.5 29.5t205.5 86.5l96 -268q-119 -61 -249.5 -93t-249.5 -32q-400 0 -601.5 216 t-201.5 591z" />
<glyph unicode="D" horiz-adv-x="1638" d="M178 0v1552h539q413 0 625 -197.5t212 -580.5q0 -385 -210.5 -579.5t-626.5 -194.5h-539zM504 276h213q260 0 383 120t123 384q0 256 -125 376t-381 120h-213v-1000z" />
<glyph unicode="E" horiz-adv-x="1314" d="M178 0v1552h1004v-264h-678v-375h575v-264h-575v-385h688v-264h-1014z" />
<glyph unicode="F" horiz-adv-x="1267" d="M178 0v1552h1004v-280h-678v-389h575v-281h-575v-602h-326z" />
<glyph unicode="G" horiz-adv-x="1554" d="M82 774q0 229 87 411.5t267 289t449 106.5q135 0 228 -25.5t210 -76.5v-291q-104 57 -205.5 87t-232.5 30q-145 0 -252 -68t-163 -186.5t-56 -270.5q0 -244 124 -391t347 -147q109 0 215 41v385h-434v280h753v-839q-123 -70 -266 -107t-268 -37q-260 0 -440.5 101.5 t-271.5 283.5t-91 424z" />
<glyph unicode="H" horiz-adv-x="1662" d="M178 0v1552h326v-630h655v630h326v-1552h-326v639h-655v-639h-326z" />
<glyph unicode="I" horiz-adv-x="681" d="M178 0v1552h326v-1552h-326z" />
<glyph unicode="J" horiz-adv-x="733" d="M6 -45q51 -10 107 -10q47 0 70.5 15t34.5 57t11 124v1411h326v-1423q0 -188 -33 -286.5t-113.5 -138.5t-234.5 -40q-107 0 -168 14v277z" />
<glyph unicode="K" horiz-adv-x="1490" d="M178 0v1552h326v-587l524 587h406l-641 -725l651 -827h-410l-452 590l-78 -86v-504h-326z" />
<glyph unicode="L" horiz-adv-x="1171" d="M178 0v1552h326v-1271h586v-281h-912z" />
<glyph unicode="M" horiz-adv-x="1931" d="M178 0v1552h373l414 -608l413 608h375v-1552h-326v1083l-383 -551h-163l-377 547v-1079h-326z" />
<glyph unicode="N" horiz-adv-x="1662" d="M178 0v1552h371l610 -1024v1024h326v-1552h-373l-608 1024v-1024h-326z" />
<glyph unicode="O" horiz-adv-x="1732" d="M82 774q0 227 89 409.5t266 290t429 107.5q250 0 427 -107.5t266.5 -291t89.5 -408.5q0 -231 -89.5 -414.5t-265.5 -289t-428 -105.5q-254 0 -430 105.5t-265 289t-89 414.5zM416 774q0 -238 116.5 -385t333.5 -147q142 0 243 69.5t153.5 191.5t52.5 277 q0 150 -53.5 268.5t-154.5 187.5t-241 69q-145 0 -246.5 -69t-152.5 -189.5t-51 -272.5z" />
<glyph unicode="P" horiz-adv-x="1406" d="M178 0v1552h606h2q570 0 570 -503q0 -246 -143.5 -374t-428.5 -128h-280v-547h-326zM504 825h280q121 0 180.5 54.5t61.5 169.5q0 118 -59.5 172.5t-182.5 54.5h-280v-451z" />
<glyph unicode="Q" horiz-adv-x="1732" d="M82 774q0 227 89 409.5t266 290t429 107.5q250 0 427 -107.5t266.5 -291t89.5 -408.5q0 -199 -66.5 -363.5t-193.5 -273.5l237 -268h-375l-114 133q-119 -37 -271 -37q-254 0 -430 105.5t-265 289t-89 414.5zM416 774q0 -237 116.5 -384.5t333.5 -147.5q25 0 62 4 l-207 239h366l95 -110q133 145 133 405q0 150 -53.5 268.5t-154.5 187.5t-241 69q-145 0 -246.5 -69t-152.5 -189.5t-51 -272.5z" />
<glyph unicode="R" horiz-adv-x="1499" d="M178 0v1552h606q571 0 572 -485q0 -356 -318 -451l383 -616h-364l-348 586h-205v-586h-326zM504 862h280q242 0 242 205q0 109 -59.5 159t-182.5 50h-280v-414z" />
<glyph unicode="S" horiz-adv-x="1359" d="M119 80v297q256 -135 561 -135q131 0 193.5 49t62.5 129q0 78 -56.5 116.5t-187.5 75.5l-139 39q-121 35 -210 81t-150.5 136t-61.5 234q0 236 142.5 357.5t400.5 121.5q154 0 271.5 -27.5t238.5 -85.5v-286q-227 123 -510 123q-119 0 -169 -45.5t-50 -129.5 q2 -80 50 -115.5t179 -72.5l141 -39q129 -35 221.5 -84t153 -142t60.5 -243q-2 -219 -156 -344t-424 -125q-317 0 -561 115z" />
<glyph unicode="T" horiz-adv-x="1359" d="M82 1272v280h1196v-280h-434v-1272h-328v1272h-434z" />
<glyph unicode="U" horiz-adv-x="1660" d="M176 594v958h326v-958q0 -174 83 -263t246 -89q162 0 245 89t83 263v958h326v-958q0 -301 -162 -465t-492 -164q-327 0 -491 164t-164 465z" />
<glyph unicode="V" horiz-adv-x="1640" d="M63 1552h336l422 -1226l420 1226h336l-553 -1570h-406z" />
<glyph unicode="W" horiz-adv-x="2402" d="M98 1552h318l284 -1187l312 1187h379l313 -1187l283 1187h319l-397 -1570h-406l-301 1114l-301 -1114h-405z" />
<glyph unicode="X" horiz-adv-x="1626" d="M68 0l559 801l-523 751h377l334 -503l334 503h377l-522 -753l557 -799h-379l-367 553l-369 -553h-378z" />
<glyph unicode="Y" horiz-adv-x="1490" d="M47 1552h328l370 -667l373 667h328l-541 -952v-600h-319v600z" />
<glyph unicode="Z" horiz-adv-x="1501" d="M164 0v276l731 996h-705v280h1115v-276l-732 -995h799v-281h-1208z" />
<glyph unicode="[" horiz-adv-x="698" d="M143 -264v1999h473v-281h-153v-1438h164v-280h-484z" />
<glyph unicode="\" horiz-adv-x="880" d="M-37 1907h320l637 -2269h-320z" />
<glyph unicode="]" horiz-adv-x="698" d="M74 1454v281h481v-1999h-475v280h156v1438h-162z" />
<glyph unicode="^" horiz-adv-x="1124" d="M4 369l430 729h256l432 -731l-252 -134l-309 527l-309 -527z" />
<glyph unicode="_" horiz-adv-x="1024" d="M0 -158h1024v-280h-1024v280z" />
<glyph unicode="`" horiz-adv-x="1331" d="M365 1657h360l205 -314h-318z" />
<glyph unicode="a" horiz-adv-x="1222" d="M63 362q0 186 114 287t315 101q162 0 282 -62q-2 68 -18.5 108t-64.5 61.5t-142 21.5h-213v274h244q215 0 325.5 -60.5t147.5 -161t37 -255.5v-676h-316v98q-74 -68 -144.5 -96.5t-156.5 -28.5q-188 0 -299 103.5t-111 285.5zM383 367q0 -145 154 -146q114 1 237 103v145 q-106 51 -211 51q-82 0 -131 -37t-49 -116z" />
<glyph unicode="b" horiz-adv-x="1392" d="M154 0v1733h315v-666q152 119 315 119q154 0 273 -68.5t185.5 -206t66.5 -336.5t-66.5 -336t-185.5 -205.5t-273 -68.5q-162 0 -315 117v-82h-315zM469 340q129 -94 250 -94q129 0 195.5 84t66.5 245q0 160 -66.5 244t-195.5 84q-123 0 -250 -92v-471z" />
<glyph unicode="c" horiz-adv-x="1118" d="M82 578q0 287 149.5 446.5t430.5 161.5q100 0 172.5 -13.5t152.5 -44.5v-288q-76 35 -143.5 49t-147.5 14q-150 -2 -217 -85t-67 -238q0 -332 276 -334q141 0 293 92l90 -264q-186 -109 -409 -109q-281 2 -430.5 163t-149.5 450z" />
<glyph unicode="d" horiz-adv-x="1392" d="M82 575q0 199 67.5 336.5t186.5 206t272 68.5q164 0 316 -119v666h315v-1733h-315v82q-154 -117 -316 -117q-154 0 -272.5 68.5t-186 206t-67.5 335.5zM412 575q0 -162 65.5 -245.5t194.5 -83.5q123 0 252 94v471q-127 92 -252 92q-129 0 -194.5 -84t-65.5 -244z" />
<glyph unicode="e" horiz-adv-x="1236" d="M82 578q0 193 73.5 329.5t200.5 207.5t283 71q248 0 388 -145.5t140 -426.5v-125h-749q36 -260 323 -260q78 0 153 20.5t169 65.5l84 -245q-104 -57 -207.5 -81t-239.5 -24q-197 0 -336 77t-210.5 215t-71.5 321zM424 729h414q-10 100 -59.5 146.5t-139.5 46.5 q-86 0 -140.5 -45.5t-74.5 -147.5z" />
<glyph unicode="f" horiz-adv-x="796" d="M66 870v283h139v307q0 299 342 299q80 0 198 -24v-273q-53 16 -116 17q-62 0 -85.5 -28t-23.5 -99v-199h225v-283h-225v-870h-315v870h-139z" />
<glyph unicode="g" horiz-adv-x="1376" d="M74 596q0 190 67.5 323.5t186 200t272.5 66.5q164 0 315 -119v86h316v-1155q0 -229 -134 -370.5t-392 -141.5q-158 0 -277 16.5t-225 57.5v293q104 -45 210.5 -65.5t192.5 -20.5q170 0 239.5 63.5t69.5 187.5v105q-154 -117 -315 -117q-240 0 -383 145.5t-143 444.5z M401 596q0 -164 64.5 -236.5t198.5 -72.5q118 0 251 94v430q-129 92 -251 92q-129 0 -196 -80t-67 -227z" />
<glyph unicode="h" horiz-adv-x="1390" d="M154 0v1733h315v-680q152 125 330 125q225 0 336.5 -116t111.5 -370v-692h-315v692q0 102 -45 152.5t-156 50.5q-131 0 -262 -109v-786h-315z" />
<glyph unicode="i" horiz-adv-x="622" d="M154 0v1153h315v-1153h-315zM154 1343v310h315v-310h-315z" />
<glyph unicode="j" horiz-adv-x="622" d="M-72 -217q57 -14 117 -14q63 0 86 30.5t23 110.5v1247h315v-1358q0 -156 -83 -233.5t-259 -77.5q-80 0 -199 25v270zM154 1343v310h315v-310h-315z" />
<glyph unicode="k" horiz-adv-x="1308" d="M154 0v1733h315v-1024l387 409h381l-459 -481l502 -637h-377l-332 420l-102 -107v-313h-315z" />
<glyph unicode="l" horiz-adv-x="745" d="M154 272v1461h315v-1350q0 -74 23.5 -101.5t85.5 -27.5q63 0 116 16v-272q-119 -25 -198 -25q-342 0 -342 299z" />
<glyph unicode="m" horiz-adv-x="2091" d="M154 0v1153h315v-98q76 63 150.5 93t160.5 30q272 0 371 -181q92 92 181 136.5t192 44.5q219 0 325.5 -115t106.5 -371v-692h-316v692q0 102 -40.5 152.5t-141.5 50.5q-123 0 -250 -111q4 -57 4 -92v-692h-315v692q0 102 -41 152.5t-141 50.5q-123 0 -246 -107v-788h-315 z" />
<glyph unicode="n" horiz-adv-x="1390" d="M154 0v1153h315v-100q152 125 330 125q225 0 336.5 -116t111.5 -370v-692h-315v692q0 102 -45 152.5t-156 50.5q-131 0 -262 -109v-786h-315z" />
<glyph unicode="o" horiz-adv-x="1372" d="M82 575q0 172 68.5 310.5t206 219.5t331.5 81q195 0 330 -81t203.5 -219t68.5 -311q0 -174 -68.5 -312t-203.5 -218t-330 -80q-194 0 -331.5 80t-206 218t-68.5 312zM412 575q0 -160 70.5 -249.5t205.5 -89.5q133 0 203 89t70 250q0 160 -70 249t-203 89 q-135 0 -205.5 -89t-70.5 -249z" />
<glyph unicode="p" horiz-adv-x="1392" d="M154 -479v1632h315v-86q152 119 315 119q154 0 273 -68.5t185.5 -206t66.5 -336.5t-66.5 -336t-185.5 -205.5t-273 -68.5q-162 0 -315 117v-561h-315zM469 340q129 -94 250 -94q129 0 195.5 84t66.5 245q0 160 -66.5 244t-195.5 84q-123 0 -250 -92v-471z" />
<glyph unicode="q" horiz-adv-x="1392" d="M82 575q0 199 67.5 336.5t186.5 206t272 68.5q164 0 316 -119v86h315v-1632h-315v561q-154 -117 -316 -117q-154 0 -272.5 68.5t-186 206t-67.5 335.5zM412 575q0 -162 65.5 -245.5t194.5 -83.5q123 0 252 94v471q-127 92 -252 92q-129 0 -194.5 -84t-65.5 -244z" />
<glyph unicode="r" horiz-adv-x="899" d="M154 0v1153h315v-111q158 135 322 136h47v-283h-47q-162 0 -322 -119v-776h-315z" />
<glyph unicode="s" horiz-adv-x="1130" d="M96 66v282q113 -63 228.5 -91t244.5 -28q154 0 154 103q0 41 -24.5 63.5t-77.5 34.5l-183 39q-166 35 -245.5 117t-79.5 227q0 373 467 373q193 0 409 -74v-272q-80 37 -185.5 59.5t-209.5 22.5q-90 0 -126 -22.5t-36 -65.5q0 -37 22.5 -54.5t71.5 -29.5l183 -39 q174 -35 253.5 -117t79.5 -246q0 -190 -128 -286.5t-345 -96.5q-141 0 -248.5 22.5t-224.5 78.5z" />
<glyph unicode="t" horiz-adv-x="866" d="M66 838v280h155v389h316v-389h262v-280h-262v-455q0 -72 23.5 -100.5t84.5 -28.5q66 0 125 16v-270q-119 -27 -207 -27q-176 0 -259 76t-83 225v564h-155z" />
<glyph unicode="u" horiz-adv-x="1390" d="M143 459v694h316v-694q0 -102 46 -152.5t154 -50.5q129 0 263 111v786h315v-1153h-315v98q-154 -123 -330 -123q-225 0 -337 115t-112 369z" />
<glyph unicode="v" horiz-adv-x="1265" d="M41 1153h324l270 -879l266 879h324l-387 -1171h-406z" />
<glyph unicode="w" horiz-adv-x="1918" d="M57 1153h324l178 -778l213 778h375l215 -778l176 778h324l-308 -1171h-370l-223 727l-224 -727h-370z" />
<glyph unicode="x" horiz-adv-x="1259" d="M49 0l385 602l-364 551h368l193 -315l196 315h365l-375 -567l393 -586h-368l-217 348l-207 -348h-369z" />
<glyph unicode="y" horiz-adv-x="1198" d="M41 1153h324l231 -719l254 719h307l-471 -1335q-45 -129 -102.5 -201t-133 -101.5t-188.5 -29.5q-98 0 -178 27v270q61 -16 125 -16q80 0 128 32.5t81 126.5l24 72z" />
<glyph unicode="z" horiz-adv-x="1157" d="M133 0v276l533 598h-496v279h854v-279l-530 -598h575v-276h-936z" />
<glyph unicode="{" horiz-adv-x="802" d="M76 594v283h55q39 0 59.5 15t29.5 57t9 124v328q0 131 38 202.5t118 101.5t219 30q70 0 135 -9v-280q-41 8 -94 8q-57 0 -76.5 -30.5t-19.5 -118.5v-283q0 -139 -38 -200.5t-140 -86.5q102 -27 140 -88t38 -198v-283q0 -88 19.5 -119t76.5 -31q53 0 94 9v-281 q-66 -8 -135 -8q-139 0 -219 29.5t-118 101.5t-38 203v327q0 82 -9 124t-29.5 57.5t-59.5 15.5h-55z" />
<glyph unicode="|" horiz-adv-x="673" d="M178 -264v1999h320v-1999h-320z" />
<glyph unicode="}" horiz-adv-x="663" d="M-75 25v-281q66 -8 135 -8q139 0 219 29.5t118 101.5t38 203v327q0 82 9 124t29.5 57.5t59.5 15.5h55v283h-55q-39 0 -59.5 15t-29.5 57t-9 124v328q0 131 -38 202.5t-118 101.5t-219 30q-70 0 -135 -9v-280q41 8 94 8q57 0 76.5 -30.5t19.5 -118.5v-283 q0 -139 38 -200.5t140 -86.5q-102 -27 -140 -88t-38 -198v-283q0 -88 -19.5 -119t-76.5 -31q-53 0 -94 9zM0 0z" />
<glyph unicode="~" d="M70 735q86 90 155.5 134t153.5 44q61 0 111.5 -18t115.5 -53q49 -25 76 -36t53 -11q45 0 86 20.5t105 73.5l131 -189q-84 -88 -153.5 -131t-151.5 -43q-62 0 -111 18.5t-115 53.5q-53 27 -78.5 37t-54.5 10q-45 0 -84 -21.5t-106 -76.5z" />
<glyph horiz-adv-x="1228" />
<glyph unicode="&#xa1;" horiz-adv-x="581" d="M115 0l41 1081h270l41 -1081h-352zM123 1208v344h336v-344h-336z" />
<glyph unicode="&#xa2;" d="M74 561q0 248 124 399.5t359 182.5v170h268v-170q94 -12 187 -49v-289q-100 45 -187 57v-602q88 20 181 78l90 -264q-128 -74 -271 -97v-174h-268v170q-236 31 -359.5 183.5t-123.5 404.5zM401 563q0 -230 156 -293v576q-156 -61 -156 -283z" />
<glyph unicode="&#xa3;" d="M80 0v281h194v297h-133v282h133v107q0 156 38 251t130.5 143t257.5 48q74 0 147 -11.5t111 -25.5v-287q-104 43 -210 43q-84 0 -121 -35.5t-37 -121.5v-111h270v-282h-270v-297h473v-281h-983z" />
<glyph unicode="&#xa4;" d="M82 997l168 170l139 -139q78 39 168 39q88 0 170 -41l139 139l168 -170l-137 -139q39 -82 39 -168q0 -92 -41 -170l137 -139l-168 -170l-139 139q-78 -39 -168 -39q-86 0 -168 39l-137 -139l-168 170l135 137q-41 88 -41 172q0 92 41 170zM391 688q0 -74 48 -126t118 -52 t118 52t48 126t-48 126t-118 52t-118 -52t-48 -126z" />
<glyph unicode="&#xa5;" d="M6 1380h309l248 -501l250 501h309l-315 -614h217v-229h-301v-95h301v-229h-301v-213h-320v213h-301v229h301v95h-301v229h217z" />
<glyph unicode="&#xa6;" horiz-adv-x="673" d="M178 -264v770h320v-770h-320zM178 965v770h320v-770h-320z" />
<glyph unicode="&#xa7;" d="M53 590q0 176 178 262q-82 78 -81 221q0 162 113.5 249t314.5 87q109 0 195.5 -13.5t170.5 -47.5v-273q-156 74 -366 74q-139 0 -140 -74q0 -31 21.5 -48t64.5 -30l211 -57q156 -45 247 -112.5t91 -211.5q0 -174 -178 -264q86 -82 86 -225q0 -162 -115.5 -250t-318.5 -88 q-106 0 -194.5 13.5t-172.5 45.5v273q160 -72 367 -72q74 0 109.5 20.5t35.5 55.5q0 33 -22.5 51.5t-67.5 30.5l-211 57q-102 29 -173 62.5t-118 97t-47 166.5zM342 637q2 -53 35 -79t129 -52l184 -51q94 43 94 116q0 49 -35.5 75t-127.5 52l-187 52q-92 -39 -92 -113z" />
<glyph unicode="&#xa8;" horiz-adv-x="1331" d="M303 1352v295h283v-295h-283zM745 1352v295h283v-295h-283z" />
<glyph unicode="&#xa9;" horiz-adv-x="1914" d="M137 774q0 217 110.5 402.5t299 295t411.5 109.5q219 0 407.5 -109.5t300.5 -295t112 -402.5q0 -227 -111 -412.5t-299 -291t-410 -105.5q-225 0 -413.5 105.5t-298 290t-109.5 413.5zM367 774q0 -170 79.5 -307t215 -215t296.5 -78q156 0 292 79t217 218t81 307 q0 158 -82 295t-218 218t-290 81q-160 0 -296 -81t-215.5 -219t-79.5 -298zM512 774q0 201 122 328t359 127q63 0 111.5 -9.5t101.5 -31.5v-234q-92 49 -213 50q-104 0 -164.5 -63.5t-60.5 -162.5q0 -111 58.5 -172t166.5 -61q61 0 118.5 14t123.5 43l41 -213 q-68 -35 -141.5 -53.5t-141.5 -18.5q-155 0 -263.5 60.5t-163 164t-54.5 232.5z" />
<glyph unicode="&#xaa;" horiz-adv-x="813" d="M23 836q0 139 79.5 214.5t219.5 75.5q111 0 198 -41q-4 66 -35.5 97.5t-111.5 31.5h-162v218h184q146 0 223.5 -49.5t103.5 -133.5t26 -209v-458h-226v55q-90 -74 -213 -74q-125 0 -205.5 73t-80.5 200zM270 842q0 -45 30 -65.5t73 -20.5q71 0 149 47v112q-74 20 -139 21 q-113 0 -113 -94z" />
<glyph unicode="&#xab;" horiz-adv-x="1558" d="M195 442v222l421 385l189 -181l-338 -315l338 -315l-189 -181zM750 57zM750 442v222l421 385l189 -181l-338 -315l338 -315l-189 -181z" />
<glyph unicode="&#xac;" d="M137 549v282h852v-567h-284v285h-568z" />
<glyph unicode="&#xad;" horiz-adv-x="929" d="M164 467v278h602v-278h-602z" />
<glyph unicode="&#xae;" horiz-adv-x="1476" d="M145 989q0 156 80 291t216.5 215t297.5 80q160 0 296 -80t216 -215t80 -291q0 -166 -80 -300t-216 -211t-296 -77q-164 0 -300 76t-215 211t-79 301zM313 989q0 -121 57.5 -217t155 -151.5t213.5 -55.5q115 0 212.5 55.5t154.5 153.5t57 219q0 111 -58 207t-156.5 153.5 t-209.5 57.5q-115 0 -213 -57.5t-155.5 -154.5t-57.5 -210zM487 692v594h252q242 0 242 -203q0 -135 -102 -182l131 -209h-189l-110 182h-60v-182h-164zM651 1014h58q59 0 81.5 15t22.5 54q0 35 -22.5 49.5t-81.5 14.5h-58v-133z" />
<glyph unicode="&#xaf;" horiz-adv-x="1329" d="M348 1401v201h633v-201h-633z" />
<glyph unicode="&#xb0;" horiz-adv-x="968" d="M61 1022q0 115 57.5 212t155 153.5t211.5 56.5q115 0 212.5 -56.5t153.5 -153.5t56 -212t-56 -212t-153.5 -154.5t-212.5 -57.5q-114 0 -211.5 57.5t-155 154.5t-57.5 212zM317 1022q0 -76 48.5 -128t119.5 -52q72 0 119 52t47 128t-46 127t-120 51t-121 -51t-47 -127z " />
<glyph unicode="&#xb1;" d="M137 0zM137 -86v282h852v-282h-852zM137 549v282h283v283h287v-283h282v-282h-282v-287h-287v287h-283z" />
<glyph unicode="&#xb2;" horiz-adv-x="798" d="M90 268v197q180 190 263 284.5t127 170t44 141.5q0 145 -147 145q-129 0 -252 -61v198q125 55 256 56q166 0 263 -85t97 -245q0 -131 -92 -266t-293 -338h414v-197h-680z" />
<glyph unicode="&#xb3;" horiz-adv-x="798" d="M82 287v198q109 -47 250 -47q88 0 142 40t54 118q0 76 -57 115t-166 39h-106v208h106q102 0 155.5 35t53.5 105q0 51 -43 79.5t-123 28.5q-150 0 -252 -41v197q100 37 252 37q190 0 287.5 -80t97.5 -221q0 -158 -158 -242q87 -43 130 -109.5t43 -150.5q0 -166 -108 -258 t-292 -92q-162 0 -266 41z" />
<glyph unicode="&#xb4;" horiz-adv-x="1331" d="M401 1343l205 314h361l-248 -314h-318z" />
<glyph unicode="&#xb6;" horiz-adv-x="1579" d="M78 1030q0 522 516 522h809v-1757h-287v1481h-178v-1481h-285v719h-59q-258 0 -387 132t-129 384z" />
<glyph unicode="&#xb7;" horiz-adv-x="581" d="M123 537v360h336v-360h-336z" />
<glyph unicode="&#xb8;" horiz-adv-x="1331" d="M420 -319q94 -43 188 -43t94 49q0 23 -22.5 35t-77.5 12q-80 0 -153 -25l81 293h207l-35 -102h3q108 0 165.5 -56.5t57.5 -150.5q0 -104 -73 -168t-212 -64q-66 0 -118 8.5t-105 32.5v179z" />
<glyph unicode="&#xb9;" horiz-adv-x="798" d="M123 268v197h170v717h-141v196h354v-913h170v-197h-553z" />
<glyph unicode="&#xba;" horiz-adv-x="1058" d="M86 1014q0 125 52 226t152.5 160.5t239.5 59.5q137 0 237.5 -59.5t153 -160.5t52.5 -226q0 -127 -52.5 -229.5t-152.5 -162t-238 -59.5q-139 0 -239.5 59.5t-152.5 162t-52 229.5zM319 1014q0 -102 55.5 -170t155.5 -68q103 0 156 67.5t53 170.5q0 102 -53 167.5 t-156 65.5q-98 0 -154.5 -66.5t-56.5 -166.5z" />
<glyph unicode="&#xbb;" horiz-adv-x="1558" d="M199 57zM199 238l189 -181l421 385v222l-421 385l-189 -181l338 -315zM754 238l189 -181l421 385v222l-421 385l-189 -181l338 -315z" />
<glyph unicode="&#xbc;" horiz-adv-x="2332" d="M123 0zM123 268v197h170v717h-141v196h354v-913h170v-197h-553zM628 -68l855 1651h253l-854 -1651h-254zM1559 467v192l411 693h236v-693h106v-192h-106v-244h-213v244h-434zM1784 659h209v353z" />
<glyph unicode="&#xbd;" horiz-adv-x="2355" d="M123 0zM123 268v197h170v717h-141v196h354v-913h170v-197h-553zM628 -68l855 1651h253l-854 -1651h-254zM1646 223v197q180 190 263 284.5t127 170t44 141.5q0 145 -147 145q-129 0 -252 -61v198q125 55 256 56q166 0 263 -85t97 -245q0 -131 -92 -266t-293 -338h414 v-197h-680z" />
<glyph unicode="&#xbe;" horiz-adv-x="2330" d="M82 0zM82 287v198q109 -47 250 -47q88 0 142 40t54 118q0 76 -57 115t-166 39h-106v208h106q102 0 155.5 35t53.5 105q0 51 -43 79.5t-123 28.5q-150 0 -252 -41v197q100 37 252 37q190 0 287.5 -80t97.5 -221q0 -158 -158 -242q87 -43 130 -109.5t43 -150.5 q0 -166 -108 -258t-292 -92q-162 0 -266 41zM626 -68l855 1651h253l-854 -1651h-254zM1556 467v192l412 693h236v-693h106v-192h-106v-244h-213v244h-435zM1782 659h209v353z" />
<glyph unicode="&#xbf;" horiz-adv-x="1040" d="M76 369q0 92 28.5 160.5t71.5 114.5t113 104l59 49q57 47 77.5 85t20.5 103v96h320v-125q0 -113 -37 -178t-131 -141l-94 -78q-63 -51 -84 -83t-21 -83q0 -70 52.5 -107.5t140.5 -37.5q184 0 356 84v-285q-96 -43 -190 -59.5t-201 -16.5q-213 0 -347 103.5t-134 294.5z M461 1262v239h291v-239h-291z" />
<glyph unicode="&#xc0;" horiz-adv-x="1632" d="M59 0l553 1571h406l555 -1571h-328l-123 350h-612l-123 -350h-328zM59 0zM426 2025h361l205 -313h-318zM606 631h418l-209 598z" />
<glyph unicode="&#xc1;" horiz-adv-x="1632" d="M59 0l553 1571h406l555 -1571h-328l-123 350h-612l-123 -350h-328zM59 0zM606 631h418l-209 598zM659 1712l205 313h360l-247 -313h-318z" />
<glyph unicode="&#xc2;" horiz-adv-x="1632" d="M59 0l553 1571h406l555 -1571h-328l-123 350h-612l-123 -350h-328zM59 0zM410 1712l196 313h420l197 -313h-309l-97 199l-98 -199h-309zM606 631h418l-209 598z" />
<glyph unicode="&#xc3;" horiz-adv-x="1632" d="M59 0l553 1571h406l555 -1571h-328l-123 350h-612l-123 -350h-328zM59 0zM443 1720q2 162 58 223.5t152 61.5q51 0 119 -23l76 -28q57 -18 76 -19q43 0 43 70h223q-2 -162 -58.5 -223.5t-152.5 -61.5q-63 0 -119 23l-75 26q-55 18 -76 19q-43 0 -43 -68h-223zM606 631 h418l-209 598z" />
<glyph unicode="&#xc4;" horiz-adv-x="1632" d="M59 0l553 1571h406l555 -1571h-328l-123 350h-612l-123 -350h-328zM59 0zM459 1720v295h282v-295h-282zM606 631h418l-209 598zM901 1720v295h283v-295h-283z" />
<glyph unicode="&#xc5;" horiz-adv-x="1632" d="M59 0l553 1571h406l555 -1571h-328l-123 350h-612l-123 -350h-328zM59 0zM576 1868q0 86 58 136t183 50q121 0 180.5 -51t59.5 -135q0 -86 -59.5 -137.5t-180.5 -51.5t-181 52.5t-60 136.5zM606 631h418l-209 598zM746 1868q0 -61 71 -62q33 0 51.5 16.5t18.5 45.5 q0 59 -70 59q-72 0 -71 -59z" />
<glyph unicode="&#xc6;" horiz-adv-x="2277" d="M55 0l914 1552h1175v-264h-680v-375h578v-264h-578v-385h690v-264h-1015v434h-475l-250 -434h-359zM813 698h326v568z" />
<glyph unicode="&#xc7;" horiz-adv-x="1456" d="M82 772q0 229 91 412.5t271.5 290t440.5 106.5q109 0 193.5 -17.5t183.5 -58.5v-284q-174 84 -367 84q-143 0 -251.5 -69t-169 -189.5t-60.5 -272.5q0 -242 125 -387t346 -145q100 0 197.5 29.5t205.5 86.5l96 -268q-109 -57 -229.5 -89t-232.5 -36l-23 -65h4 q107 0 164 -56.5t57 -150.5q0 -106 -71.5 -169t-212.5 -63q-66 0 -117 8.5t-105 32.5v179q94 -43 189 -43q94 0 94 49q0 23 -22.5 35t-77.5 12q-78 0 -156 -25l74 266q-317 45 -477 254t-160 543z" />
<glyph unicode="&#xc8;" horiz-adv-x="1314" d="M178 0v1552h1004v-264h-678v-375h575v-264h-575v-385h688v-264h-1014zM178 0zM293 2025h361l205 -313h-318z" />
<glyph unicode="&#xc9;" horiz-adv-x="1314" d="M178 0v1552h1004v-264h-678v-375h575v-264h-575v-385h688v-264h-1014zM178 0zM524 1712l205 313h360l-247 -313h-318z" />
<glyph unicode="&#xca;" horiz-adv-x="1314" d="M178 0v1552h1004v-264h-678v-375h575v-264h-575v-385h688v-264h-1014zM178 0zM277 1712l196 313h420l197 -313h-309l-97 199l-98 -199h-309z" />
<glyph unicode="&#xcb;" horiz-adv-x="1314" d="M178 0v1552h1004v-264h-678v-375h575v-264h-575v-385h688v-264h-1014zM178 0zM324 1720v295h282v-295h-282zM766 1720v295h283v-295h-283z" />
<glyph unicode="&#xcc;" horiz-adv-x="681" d="M-52 2025h361l205 -313h-318zM0 0zM178 0v1552h326v-1552h-326z" />
<glyph unicode="&#xcd;" horiz-adv-x="681" d="M178 0v1552h326v-1552h-326zM178 0zM182 1712l205 313h360l-247 -313h-318z" />
<glyph unicode="&#xce;" horiz-adv-x="681" d="M-67 1712l196 313h420l197 -313h-309l-97 199l-98 -199h-309zM0 0zM178 0v1552h326v-1552h-326z" />
<glyph unicode="&#xcf;" horiz-adv-x="681" d="M-18 1720v295h282v-295h-282zM0 0zM178 0v1552h326v-1552h-326zM424 1720v295h283v-295h-283z" />
<glyph unicode="&#xd0;" horiz-adv-x="1638" d="M20 662v237h158v653h539q413 0 625 -197.5t212 -580.5q0 -385 -210.5 -579.5t-626.5 -194.5h-539v662h-158zM504 276h213q260 0 383 120t123 384q0 256 -125 376t-381 120h-213v-377h323v-237h-323v-386z" />
<glyph unicode="&#xd1;" horiz-adv-x="1662" d="M178 0v1552h371l610 -1024v1024h326v-1552h-373l-608 1024v-1024h-326zM178 0zM463 1720q2 162 58 223.5t152 61.5q51 0 119 -23l76 -28q57 -18 76 -19q43 0 43 70h223q-2 -162 -58.5 -223.5t-152.5 -61.5q-63 0 -119 23l-75 26q-55 18 -76 19q-43 0 -43 -68h-223z" />
<glyph unicode="&#xd2;" horiz-adv-x="1732" d="M82 0zM82 774q0 227 89 409.5t266 290t429 107.5q250 0 427 -107.5t266.5 -291t89.5 -408.5q0 -231 -89.5 -414.5t-265.5 -289t-428 -105.5q-254 0 -430 105.5t-265 289t-89 414.5zM416 774q0 -238 116.5 -385t333.5 -147q142 0 243 69.5t153.5 191.5t52.5 277 q0 150 -53.5 268.5t-154.5 187.5t-241 69q-145 0 -246.5 -69t-152.5 -189.5t-51 -272.5zM477 2025h361l205 -313h-318z" />
<glyph unicode="&#xd3;" horiz-adv-x="1732" d="M82 0zM82 774q0 227 89 409.5t266 290t429 107.5q250 0 427 -107.5t266.5 -291t89.5 -408.5q0 -231 -89.5 -414.5t-265.5 -289t-428 -105.5q-254 0 -430 105.5t-265 289t-89 414.5zM416 774q0 -238 116.5 -385t333.5 -147q142 0 243 69.5t153.5 191.5t52.5 277 q0 150 -53.5 268.5t-154.5 187.5t-241 69q-145 0 -246.5 -69t-152.5 -189.5t-51 -272.5zM708 1712l205 313h360l-247 -313h-318z" />
<glyph unicode="&#xd4;" horiz-adv-x="1732" d="M82 0zM82 774q0 227 89 409.5t266 290t429 107.5q250 0 427 -107.5t266.5 -291t89.5 -408.5q0 -231 -89.5 -414.5t-265.5 -289t-428 -105.5q-254 0 -430 105.5t-265 289t-89 414.5zM416 774q0 -238 116.5 -385t333.5 -147q142 0 243 69.5t153.5 191.5t52.5 277 q0 150 -53.5 268.5t-154.5 187.5t-241 69q-145 0 -246.5 -69t-152.5 -189.5t-51 -272.5zM459 1712l196 313h420l197 -313h-309l-97 199l-98 -199h-309z" />
<glyph unicode="&#xd5;" horiz-adv-x="1732" d="M82 0zM82 774q0 227 89 409.5t266 290t429 107.5q250 0 427 -107.5t266.5 -291t89.5 -408.5q0 -231 -89.5 -414.5t-265.5 -289t-428 -105.5q-254 0 -430 105.5t-265 289t-89 414.5zM416 774q0 -238 116.5 -385t333.5 -147q142 0 243 69.5t153.5 191.5t52.5 277 q0 150 -53.5 268.5t-154.5 187.5t-241 69q-145 0 -246.5 -69t-152.5 -189.5t-51 -272.5zM492 1720q2 162 58 223.5t152 61.5q51 0 119 -23l76 -28q57 -18 76 -19q43 0 43 70h223q-2 -162 -58.5 -223.5t-152.5 -61.5q-63 0 -119 23l-75 26q-55 18 -76 19q-43 0 -43 -68h-223z " />
<glyph unicode="&#xd6;" horiz-adv-x="1732" d="M82 0zM82 774q0 227 89 409.5t266 290t429 107.5q250 0 427 -107.5t266.5 -291t89.5 -408.5q0 -231 -89.5 -414.5t-265.5 -289t-428 -105.5q-254 0 -430 105.5t-265 289t-89 414.5zM416 774q0 -238 116.5 -385t333.5 -147q142 0 243 69.5t153.5 191.5t52.5 277 q0 150 -53.5 268.5t-154.5 187.5t-241 69q-145 0 -246.5 -69t-152.5 -189.5t-51 -272.5zM508 1720v295h282v-295h-282zM950 1720v295h283v-295h-283z" />
<glyph unicode="&#xd8;" horiz-adv-x="1732" d="M76 158l133 135q-127 201 -127 481q0 227 89 409.5t266 290t429 107.5q283 0 477 -139l132 133l190 -182l-141 -144q125 -199 125 -475q0 -231 -89.5 -414.5t-265.5 -289t-428 -105.5q-283 0 -475 135l-123 -125zM416 774q0 -131 37 -235l673 684q-111 82 -260 82 q-145 0 -246.5 -69t-152.5 -189.5t-51 -272.5zM606 319q111 -78 260 -77q143 0 243.5 70.5t153 195.5t52.5 285q0 111 -35 211z" />
<glyph unicode="&#xd9;" horiz-adv-x="1660" d="M176 0zM176 594v958h326v-958q0 -174 83 -263t246 -89q162 0 245 89t83 263v958h326v-958q0 -301 -162 -465t-492 -164q-327 0 -491 164t-164 465zM440 2025h361l205 -313h-318z" />
<glyph unicode="&#xda;" horiz-adv-x="1660" d="M176 0zM176 594v958h326v-958q0 -174 83 -263t246 -89q162 0 245 89t83 263v958h326v-958q0 -301 -162 -465t-492 -164q-327 0 -491 164t-164 465zM672 1712l205 313h360l-247 -313h-318z" />
<glyph unicode="&#xdb;" horiz-adv-x="1660" d="M176 0zM176 594v958h326v-958q0 -174 83 -263t246 -89q162 0 245 89t83 263v958h326v-958q0 -301 -162 -465t-492 -164q-327 0 -491 164t-164 465zM424 1712l196 313h420l197 -313h-309l-97 199l-98 -199h-309z" />
<glyph unicode="&#xdc;" horiz-adv-x="1660" d="M176 0zM176 594v958h326v-958q0 -174 83 -263t246 -89q162 0 245 89t83 263v958h326v-958q0 -301 -162 -465t-492 -164q-327 0 -491 164t-164 465zM471 1720v295h282v-295h-282zM913 1720v295h283v-295h-283z" />
<glyph unicode="&#xdd;" horiz-adv-x="1490" d="M47 0zM47 1552h328l370 -667l373 667h328l-541 -952v-600h-319v600zM588 1712l205 313h360l-247 -313h-318z" />
<glyph unicode="&#xde;" horiz-adv-x="1314" d="M178 0v1552h326v-260h280q572 0 572 -504q0 -246 -143.5 -373.5t-428.5 -127.5h-280v-287h-326zM504 565h280q121 0 180.5 54.5t61.5 168.5q0 119 -59.5 173.5t-182.5 54.5h-280v-451z" />
<glyph unicode="&#xdf;" horiz-adv-x="1359" d="M154 0v1260q0 258 126 378.5t377 120.5q211 0 331 -107.5t120 -301.5q0 -117 -33 -195t-90 -162q-37 -55 -51 -83.5t-14 -63.5q0 -41 32.5 -68.5t102.5 -66.5q80 -45 130 -84t88 -105.5t38 -167.5q-4 -193 -118 -291t-306 -98q-76 0 -135.5 9.5t-126.5 37.5v271 q113 -53 211 -54q76 0 114.5 28t40.5 89q0 47 -32.5 73.5t-106.5 65.5q-78 41 -128 77t-87 104.5t-37 173.5q0 92 27.5 154.5t81.5 129.5q43 63 63.5 104.5t20.5 98.5q0 80 -36 116t-110 36q-92 0 -135 -49.5t-43 -169.5v-1260h-315z" />
<glyph unicode="&#xe0;" horiz-adv-x="1222" d="M63 0zM63 362q0 186 114 287t315 101q162 0 282 -62q-2 68 -18.5 108t-64.5 61.5t-142 21.5h-213v274h244q215 0 325.5 -60.5t147.5 -161t37 -255.5v-676h-316v98q-74 -68 -144.5 -96.5t-156.5 -28.5q-188 0 -299 103.5t-111 285.5zM195 1657h360l205 -314h-318zM383 367 q0 -145 154 -146q114 1 237 103v145q-106 51 -211 51q-82 0 -131 -37t-49 -116z" />
<glyph unicode="&#xe1;" horiz-adv-x="1222" d="M63 0zM63 362q0 186 114 287t315 101q162 0 282 -62q-2 68 -18.5 108t-64.5 61.5t-142 21.5h-213v274h244q215 0 325.5 -60.5t147.5 -161t37 -255.5v-676h-316v98q-74 -68 -144.5 -96.5t-156.5 -28.5q-188 0 -299 103.5t-111 285.5zM383 367q0 -145 154 -146 q114 1 237 103v145q-106 51 -211 51q-82 0 -131 -37t-49 -116zM430 1343l205 314h361l-248 -314h-318z" />
<glyph unicode="&#xe2;" horiz-adv-x="1222" d="M63 0zM63 362q0 186 114 287t315 101q162 0 282 -62q-2 68 -18.5 108t-64.5 61.5t-142 21.5h-213v274h244q215 0 325.5 -60.5t147.5 -161t37 -255.5v-676h-316v98q-74 -68 -144.5 -96.5t-156.5 -28.5q-188 0 -299 103.5t-111 285.5zM186 1343l197 314h419l197 -314h-309 l-96 199l-99 -199h-309zM383 367q0 -145 154 -146q114 1 237 103v145q-106 51 -211 51q-82 0 -131 -37t-49 -116z" />
<glyph unicode="&#xe3;" horiz-adv-x="1222" d="M63 0zM63 362q0 186 114 287t315 101q162 0 282 -62q-2 68 -18.5 108t-64.5 61.5t-142 21.5h-213v274h244q215 0 325.5 -60.5t147.5 -161t37 -255.5v-676h-316v98q-74 -68 -144.5 -96.5t-156.5 -28.5q-188 0 -299 103.5t-111 285.5zM219 1352q2 161 58.5 222.5 t152.5 61.5q51 0 119 -22l75 -29q57 -18 76 -18q43 0 43 69h223q-2 -162 -58 -223t-153 -61q-63 0 -118 22l-76 27q-55 18 -76 18q-43 0 -43 -67h-223zM383 367q0 -145 154 -146q114 1 237 103v145q-106 51 -211 51q-82 0 -131 -37t-49 -116z" />
<glyph unicode="&#xe4;" horiz-adv-x="1222" d="M63 0zM63 362q0 186 114 287t315 101q162 0 282 -62q-2 68 -18.5 108t-64.5 61.5t-142 21.5h-213v274h244q215 0 325.5 -60.5t147.5 -161t37 -255.5v-676h-316v98q-74 -68 -144.5 -96.5t-156.5 -28.5q-188 0 -299 103.5t-111 285.5zM233 1352v295h283v-295h-283zM383 367 q0 -145 154 -146q114 1 237 103v145q-106 51 -211 51q-82 0 -131 -37t-49 -116zM675 1352v295h283v-295h-283z" />
<glyph unicode="&#xe5;" horiz-adv-x="1222" d="M63 0zM63 362q0 186 114 287t315 101q162 0 282 -62q-2 68 -18.5 108t-64.5 61.5t-142 21.5h-213v274h244q215 0 325.5 -60.5t147.5 -161t37 -255.5v-676h-316v98q-74 -68 -144.5 -96.5t-156.5 -28.5q-188 0 -299 103.5t-111 285.5zM352 1499q0 86 58.5 136.5t183.5 50.5 q121 0 180 -51.5t59 -135.5q0 -86 -59.5 -137t-179.5 -51q-121 0 -181.5 52t-60.5 136zM383 367q0 -145 154 -146q114 1 237 103v145q-106 51 -211 51q-82 0 -131 -37t-49 -116zM522 1499q0 -61 72 -61q32 0 50.5 16t18.5 45q0 59 -69 60q-72 0 -72 -60z" />
<glyph unicode="&#xe6;" horiz-adv-x="1927" d="M63 362q0 186 114 287t315 101q162 0 282 -62q-2 68 -18.5 108t-64.5 61.5t-142 21.5h-213v274h244q279 0 381 -139q70 84 171 128t220 44q231 0 368.5 -146.5t137.5 -425.5v-125h-750q37 -260 324 -260q78 0 152.5 20.5t168.5 65.5l84 -245q-104 -57 -207.5 -81 t-238.5 -24q-160 0 -283 50.5t-203 144.5q-102 -102 -204.5 -144.5t-227.5 -42.5q-188 0 -299 103.5t-111 285.5zM383 367q0 -145 154 -146q127 0 266 127q-18 59 -25 119q-106 53 -215 53q-82 0 -131 -37t-49 -116zM1114 729h414q-10 100 -59.5 146.5t-139.5 46.5 q-86 0 -140 -45.5t-75 -147.5z" />
<glyph unicode="&#xe7;" horiz-adv-x="1118" d="M82 578q0 287 149.5 446.5t430.5 161.5q100 0 172.5 -13.5t152.5 -44.5v-288q-76 35 -143.5 49t-147.5 14q-150 -2 -217 -85t-67 -238q0 -332 276 -334q141 0 293 92l90 -264q-160 -92 -332 -105l-24 -69h2q106 0 163.5 -56.5t57.5 -150.5q0 -106 -71.5 -169t-211.5 -63 q-66 0 -118 8.5t-105 32.5v179q94 -43 189 -43q94 0 94 49q0 23 -22.5 35t-78.5 12q-78 0 -155 -25l76 266q-221 37 -337 194t-116 409z" />
<glyph unicode="&#xe8;" horiz-adv-x="1236" d="M82 0zM82 578q0 193 73.5 329.5t200.5 207.5t283 71q248 0 388 -145.5t140 -426.5v-125h-749q36 -260 323 -260q78 0 153 20.5t169 65.5l84 -245q-104 -57 -207.5 -81t-239.5 -24q-197 0 -336 77t-210.5 215t-71.5 321zM244 1657h360l205 -314h-318zM424 729h414 q-10 100 -59.5 146.5t-139.5 46.5q-86 0 -140.5 -45.5t-74.5 -147.5z" />
<glyph unicode="&#xe9;" horiz-adv-x="1236" d="M82 0zM82 578q0 193 73.5 329.5t200.5 207.5t283 71q248 0 388 -145.5t140 -426.5v-125h-749q36 -260 323 -260q78 0 153 20.5t169 65.5l84 -245q-104 -57 -207.5 -81t-239.5 -24q-197 0 -336 77t-210.5 215t-71.5 321zM424 729h414q-10 100 -59.5 146.5t-139.5 46.5 q-86 0 -140.5 -45.5t-74.5 -147.5zM477 1343l205 314h361l-248 -314h-318z" />
<glyph unicode="&#xea;" horiz-adv-x="1236" d="M82 0zM82 578q0 193 73.5 329.5t200.5 207.5t283 71q248 0 388 -145.5t140 -426.5v-125h-749q36 -260 323 -260q78 0 153 20.5t169 65.5l84 -245q-104 -57 -207.5 -81t-239.5 -24q-197 0 -336 77t-210.5 215t-71.5 321zM233 1343l197 314h419l197 -314h-309l-96 199 l-99 -199h-309zM424 729h414q-10 100 -59.5 146.5t-139.5 46.5q-86 0 -140.5 -45.5t-74.5 -147.5z" />
<glyph unicode="&#xeb;" horiz-adv-x="1236" d="M82 0zM82 578q0 193 73.5 329.5t200.5 207.5t283 71q248 0 388 -145.5t140 -426.5v-125h-749q36 -260 323 -260q78 0 153 20.5t169 65.5l84 -245q-104 -57 -207.5 -81t-239.5 -24q-197 0 -336 77t-210.5 215t-71.5 321zM283 1352v295h283v-295h-283zM424 729h414 q-10 100 -59.5 146.5t-139.5 46.5q-86 0 -140.5 -45.5t-74.5 -147.5zM725 1352v295h283v-295h-283z" />
<glyph unicode="&#xec;" horiz-adv-x="622" d="M-88 1657h360l205 -314h-318zM0 0zM154 0v1153h315v-1153h-315z" />
<glyph unicode="&#xed;" horiz-adv-x="622" d="M147 0zM147 1343l205 314h361l-248 -314h-318zM154 0v1153h315v-1153h-315z" />
<glyph unicode="&#xee;" horiz-adv-x="622" d="M-96 1343l197 314h419l197 -314h-309l-96 199l-99 -199h-309zM0 0zM154 0v1153h315v-1153h-315z" />
<glyph unicode="&#xef;" horiz-adv-x="622" d="M-49 1352v295h283v-295h-283zM0 0zM154 0v1153h315v-1153h-315zM393 1352v295h283v-295h-283z" />
<glyph unicode="&#xf0;" horiz-adv-x="1359" d="M82 563q0 213 71.5 348.5t188.5 195.5t256 60q127 0 252 -67q-70 129 -170 235l-148 -114l-133 155l119 94q-66 47 -125 78l252 217q90 -57 131 -90l146 115l137 -162l-123 -94q164 -172 252 -392t88 -480q0 -319 -153.5 -508t-442.5 -189q-276 0 -437 153.5t-161 444.5z M401 563q0 -168 76 -242.5t203 -74.5q131 0 203.5 102.5t72.5 292.5q0 80 -8 143q-135 102 -270 103q-119 0 -198 -72t-79 -252z" />
<glyph unicode="&#xf1;" horiz-adv-x="1390" d="M154 0v1153h315v-100q152 125 330 125q225 0 336.5 -116t111.5 -370v-692h-315v692q0 102 -45 152.5t-156 50.5q-131 0 -262 -109v-786h-315zM154 0zM338 1352q2 161 58.5 222.5t152.5 61.5q51 0 119 -22l75 -29q57 -18 76 -18q43 0 43 69h223q-2 -162 -58 -223t-153 -61 q-63 0 -118 22l-76 27q-55 18 -76 18q-43 0 -43 -67h-223z" />
<glyph unicode="&#xf2;" horiz-adv-x="1372" d="M82 0zM82 575q0 172 68.5 310.5t206 219.5t331.5 81q195 0 330 -81t203.5 -219t68.5 -311q0 -174 -68.5 -312t-203.5 -218t-330 -80q-194 0 -331.5 80t-206 218t-68.5 312zM287 1657h360l205 -314h-318zM412 575q0 -160 70.5 -249.5t205.5 -89.5q133 0 203 89t70 250 q0 160 -70 249t-203 89q-135 0 -205.5 -89t-70.5 -249z" />
<glyph unicode="&#xf3;" horiz-adv-x="1372" d="M82 0zM82 575q0 172 68.5 310.5t206 219.5t331.5 81q195 0 330 -81t203.5 -219t68.5 -311q0 -174 -68.5 -312t-203.5 -218t-330 -80q-194 0 -331.5 80t-206 218t-68.5 312zM412 575q0 -160 70.5 -249.5t205.5 -89.5q133 0 203 89t70 250q0 160 -70 249t-203 89 q-135 0 -205.5 -89t-70.5 -249zM522 1343l205 314h361l-248 -314h-318z" />
<glyph unicode="&#xf4;" horiz-adv-x="1372" d="M82 0zM82 575q0 172 68.5 310.5t206 219.5t331.5 81q195 0 330 -81t203.5 -219t68.5 -311q0 -174 -68.5 -312t-203.5 -218t-330 -80q-194 0 -331.5 80t-206 218t-68.5 312zM278 1343l197 314h419l197 -314h-309l-96 199l-99 -199h-309zM412 575q0 -160 70.5 -249.5 t205.5 -89.5q133 0 203 89t70 250q0 160 -70 249t-203 89q-135 0 -205.5 -89t-70.5 -249z" />
<glyph unicode="&#xf5;" horiz-adv-x="1372" d="M82 0zM82 575q0 172 68.5 310.5t206 219.5t331.5 81q195 0 330 -81t203.5 -219t68.5 -311q0 -174 -68.5 -312t-203.5 -218t-330 -80q-194 0 -331.5 80t-206 218t-68.5 312zM311 1352q2 161 58.5 222.5t152.5 61.5q51 0 119 -22l75 -29q57 -18 76 -18q43 0 43 69h223 q-2 -162 -58 -223t-153 -61q-63 0 -118 22l-76 27q-55 18 -76 18q-43 0 -43 -67h-223zM412 575q0 -160 70.5 -249.5t205.5 -89.5q133 0 203 89t70 250q0 160 -70 249t-203 89q-135 0 -205.5 -89t-70.5 -249z" />
<glyph unicode="&#xf6;" horiz-adv-x="1372" d="M82 0zM82 575q0 172 68.5 310.5t206 219.5t331.5 81q195 0 330 -81t203.5 -219t68.5 -311q0 -174 -68.5 -312t-203.5 -218t-330 -80q-194 0 -331.5 80t-206 218t-68.5 312zM328 1352v295h283v-295h-283zM412 575q0 -160 70.5 -249.5t205.5 -89.5q133 0 203 89t70 250 q0 160 -70 249t-203 89q-135 0 -205.5 -89t-70.5 -249zM770 1352v295h283v-295h-283z" />
<glyph unicode="&#xf7;" d="M137 80zM137 549v282h852v-282h-852zM395 80v360h336v-360h-336zM395 956v360h336v-360h-336z" />
<glyph unicode="&#xf8;" horiz-adv-x="1372" d="M68 141l98 97q-84 145 -84 337q0 172 68.5 310.5t206 219.5t331.5 81q205 0 354 -96l93 88l172 -166l-101 -97q84 -150 84 -340q0 -174 -68.5 -312t-203.5 -218t-330 -80q-211 0 -358 96l-86 -86zM412 575q0 -47 6 -94l409 400q-57 33 -139 32q-135 0 -205.5 -89 t-70.5 -249zM545 270q63 -35 143 -34q133 0 203 89t70 250q-1 52 -7 95z" />
<glyph unicode="&#xf9;" horiz-adv-x="1390" d="M143 0zM143 459v694h316v-694q0 -102 46 -152.5t154 -50.5q129 0 263 111v786h315v-1153h-315v98q-154 -123 -330 -123q-225 0 -337 115t-112 369zM295 1657h360l205 -314h-318z" />
<glyph unicode="&#xfa;" horiz-adv-x="1390" d="M143 0zM143 459v694h316v-694q0 -102 46 -152.5t154 -50.5q129 0 263 111v786h315v-1153h-315v98q-154 -123 -330 -123q-225 0 -337 115t-112 369zM530 1343l205 314h361l-248 -314h-318z" />
<glyph unicode="&#xfb;" horiz-adv-x="1390" d="M143 0zM143 459v694h316v-694q0 -102 46 -152.5t154 -50.5q129 0 263 111v786h315v-1153h-315v98q-154 -123 -330 -123q-225 0 -337 115t-112 369zM287 1343l197 314h419l197 -314h-309l-96 199l-99 -199h-309z" />
<glyph unicode="&#xfc;" horiz-adv-x="1390" d="M143 0zM143 459v694h316v-694q0 -102 46 -152.5t154 -50.5q129 0 263 111v786h315v-1153h-315v98q-154 -123 -330 -123q-225 0 -337 115t-112 369zM334 1352v295h283v-295h-283zM776 1352v295h283v-295h-283z" />
<glyph unicode="&#xfd;" horiz-adv-x="1198" d="M41 0zM41 1153h324l231 -719l254 719h307l-471 -1335q-45 -129 -102.5 -201t-133 -101.5t-188.5 -29.5q-98 0 -178 27v270q61 -16 125 -16q80 0 128 32.5t81 126.5l24 72zM436 1343l205 314h361l-248 -314h-318z" />
<glyph unicode="&#xfe;" horiz-adv-x="1275" d="M154 -479v2212h315v-666q152 119 315 119q154 0 273 -68.5t185.5 -206t66.5 -336.5t-66.5 -336t-185.5 -205.5t-273 -68.5q-162 0 -315 117v-561h-315zM469 340q129 -94 250 -94q129 0 195.5 84t66.5 245q0 160 -66.5 244t-195.5 84q-123 0 -250 -92v-471z" />
<glyph unicode="&#xff;" horiz-adv-x="1198" d="M41 0zM41 1153h324l231 -719l254 719h307l-471 -1335q-45 -129 -102.5 -201t-133 -101.5t-188.5 -29.5q-98 0 -178 27v270q61 -16 125 -16q80 0 128 32.5t81 126.5l24 72zM240 1352v295h283v-295h-283zM682 1352v295h283v-295h-283z" />
<glyph unicode="&#x152;" horiz-adv-x="2273" d="M84 778q0 385 211 579.5t627 194.5h1218v-264h-678v-375h576v-264h-576v-385h688v-264h-1228q-414 0 -626 197.5t-212 580.5zM416 772q0 -256 125 -376t381 -120h215v1000h-215q-260 0 -383 -120t-123 -384z" />
<glyph unicode="&#x153;" horiz-adv-x="2115" d="M82 575q0 172 66.5 310.5t199.5 219.5t324 81q152 0 264.5 -55.5t185.5 -155.5q70 102 177.5 156.5t234.5 54.5q240 0 376 -145.5t136 -426.5v-125h-750q37 -260 324 -260q78 0 152.5 20.5t169.5 65.5l83 -245q-104 -57 -207.5 -81t-238.5 -24q-152 0 -267.5 55.5 t-187.5 157.5q-74 -100 -187.5 -156.5t-264.5 -56.5q-190 0 -323.5 80t-200 218t-66.5 312zM412 575q0 -160 70.5 -249.5t205.5 -89.5q133 0 203 89t70 250q0 160 -70 249t-203 89q-135 0 -205.5 -89t-70.5 -249zM1303 729h413q-10 100 -59 146.5t-139 46.5 q-86 0 -140.5 -45.5t-74.5 -147.5z" />
<glyph unicode="&#x178;" horiz-adv-x="1490" d="M47 0zM47 1552h328l370 -667l373 667h328l-541 -952v-600h-319v600zM387 1720v295h282v-295h-282zM829 1720v295h283v-295h-283z" />
<glyph unicode="&#x2c6;" horiz-adv-x="1329" d="M258 1343l197 314h419l197 -314h-309l-96 199l-99 -199h-309z" />
<glyph unicode="&#x2dc;" horiz-adv-x="1329" d="M291 1352q2 161 58.5 222.5t152.5 61.5q51 0 119 -22l75 -29q57 -18 76 -18q43 0 43 69h223q-2 -162 -58 -223t-153 -61q-63 0 -118 22l-76 27q-55 18 -76 18q-43 0 -43 -67h-223z" />
<glyph unicode="&#x2000;" horiz-adv-x="1027" />
<glyph unicode="&#x2001;" horiz-adv-x="2054" />
<glyph unicode="&#x2002;" horiz-adv-x="1027" />
<glyph unicode="&#x2003;" horiz-adv-x="2054" />
<glyph unicode="&#x2004;" horiz-adv-x="684" />
<glyph unicode="&#x2005;" horiz-adv-x="513" />
<glyph unicode="&#x2006;" horiz-adv-x="342" />
<glyph unicode="&#x2007;" horiz-adv-x="342" />
<glyph unicode="&#x2008;" horiz-adv-x="256" />
<glyph unicode="&#x2009;" horiz-adv-x="410" />
<glyph unicode="&#x200a;" horiz-adv-x="114" />
<glyph unicode="&#x2010;" horiz-adv-x="929" d="M164 467v278h602v-278h-602z" />
<glyph unicode="&#x2011;" horiz-adv-x="929" d="M164 467v278h602v-278h-602z" />
<glyph unicode="&#x2012;" horiz-adv-x="929" d="M164 467v278h602v-278h-602z" />
<glyph unicode="&#x2013;" horiz-adv-x="1024" d="M0 467v278h1024v-278h-1024z" />
<glyph unicode="&#x2014;" horiz-adv-x="2048" d="M256 467v278h1536v-278h-1536z" />
<glyph unicode="&#x2018;" horiz-adv-x="581" d="M75 1552l123 -669h328l-170 669h-281zM76 883z" />
<glyph unicode="&#x2019;" horiz-adv-x="581" d="M55 883l123 669h328l-170 -669h-281zM55 883z" />
<glyph unicode="&#x201a;" horiz-adv-x="581" d="M55 0zM55 -309l123 669h328l-170 -669h-281z" />
<glyph unicode="&#x201c;" horiz-adv-x="1046" d="M76 1552h280l170 -669h-327zM541 1552h280l170 -669h-327z" />
<glyph unicode="&#x201d;" horiz-adv-x="1046" d="M55 883l123 669h328l-170 -669h-281zM55 883zM520 883l123 669h328l-170 -669h-281z" />
<glyph unicode="&#x201e;" horiz-adv-x="1046" d="M55 -309l123 669h328l-170 -669h-281zM520 -309l123 669h328l-170 -669h-281z" />
<glyph unicode="&#x2022;" horiz-adv-x="710" d="M41 780q0 88 42 160t114.5 113t158.5 41q88 0 160 -41t113 -113t41 -160q0 -86 -41 -158.5t-113 -114.5t-160 -42q-86 0 -158.5 42t-114.5 114.5t-42 158.5z" />
<glyph unicode="&#x2026;" horiz-adv-x="1744" d="M123 0v360h336v-360h-336zM705 0v360h335v-360h-335zM1286 0v360h336v-360h-336z" />
<glyph unicode="&#x202f;" horiz-adv-x="410" />
<glyph unicode="&#x2039;" horiz-adv-x="1003" d="M195 442v222l421 385l189 -181l-338 -315l338 -315l-189 -181z" />
<glyph unicode="&#x203a;" horiz-adv-x="1003" d="M199 57zM199 238l189 -181l421 385v222l-421 385l-189 -181l338 -315z" />
<glyph unicode="&#x205f;" horiz-adv-x="513" />
<glyph unicode="&#x20ac;" d="M53 735l86 232h90q43 223 168 332.5t336 109.5q102 0 183 -25.5t153 -72.5l-113 -252q-102 74 -200 74q-147 0 -197 -166h375l-86 -232h-318q-2 -14 -2 -47q0 -31 2 -45h283l-86 -231h-168q25 -90 74 -130t123 -40q68 0 119 23.5t122 74.5l101 -252q-82 -63 -176.5 -93 t-214.5 -30q-197 0 -317 109.5t-163 337.5h-170l86 231h64q-2 14 -2 45q0 33 2 47h-154z" />
<glyph unicode="&#x2122;" horiz-adv-x="2334" d="M82 1305v247h782v-247h-256v-863h-268v863h-258zM1014 442v1110h233l338 -462l338 462h234v-1110h-269v684l-231 -317h-144l-231 317v-684h-268z" />
<glyph unicode="&#x25fc;" horiz-adv-x="1157" d="M0 0v1157h1157v-1157h-1157z" />
</font>
</defs>
</svg>
